<svg id="Слой_1" data-name="Слой 1" xmlns="http://www.w3.org/2000/svg" viewBox="0 0 29.98 42.81"><defs><style>.cls-1{fill:#434962;}.cls-2{fill:#00a19a;}.cls-3{fill:#dadada;}.cls-4{fill:#a8dbef;}</style></defs><path class="cls-1" d="M13.55.1a14.17,14.17,0,0,0-2.82.45A9.32,9.32,0,0,0,9.48,1c-.44.18-.88.37-1.3.59A15.5,15.5,0,0,0,5.86,3.12a6.42,6.42,0,0,0-.48.43l0,0L4.9,4c-.35.34-.68.7-1,1.06s-.61.72-.89,1.1-.55.76-.8,1.15a9,9,0,0,0-.64,1.18,14.91,14.91,0,0,0-1,2.68c-.11.44-.21.89-.29,1.35A14.23,14.23,0,0,0,.06,14c0,.46,0,.93-.06,1.39,0,.25,0,.49,0,.74s0,.43,0,.65a12.91,12.91,0,0,0,.64,2.83,21.17,21.17,0,0,0,1.12,2.69c.21.42.45.82.68,1.22s.42.79.65,1.17.47.78.7,1.16L4.58,27c.49.8,1,1.61,1.48,2.41S7,31,7.48,31.79s.94,1.57,1.43,2.35,1,1.56,1.48,2.34l.77,1.16c.24.38.48.77.73,1.14s.53.79.78,1.19c.11.19.22.38.34.56s.26.37.38.56l.71,1.12a2.91,2.91,0,0,0,.26.33,1,1,0,0,0,.36.24.92.92,0,0,0,.67-.08,2.34,2.34,0,0,0,.66-.51c.09-.08.17-.17.26-.26.32-.34.65-.68,1-1s.63-.78.93-1.19c.54-.76,1.06-1.53,1.55-2.31s1-1.58,1.49-2.38L22,33.9c.26-.4.52-.8.76-1.22s.48-.79.72-1.19l.69-1.18c.23-.4.46-.79.68-1.2s.43-.84.64-1.27c.84-1.68,1.72-3.35,2.45-5.08.17-.42.33-.84.49-1.25s.3-.84.43-1.27a27.08,27.08,0,0,0,.64-2.66,24.7,24.7,0,0,0,.4-2.83A14.26,14.26,0,0,0,29.93,12a8.55,8.55,0,0,0-.14-.86c0-.21-.1-.42-.16-.64-.11-.44-.22-.88-.37-1.31s-.35-.94-.55-1.41a10.84,10.84,0,0,0-.61-1.17,8.61,8.61,0,0,0-.78-1.18,11.49,11.49,0,0,0-.94-1.13c-.33-.32-.65-.65-1-.94s-.79-.58-1.19-.85A14.76,14.76,0,0,0,21.8,1.21Q21.1.91,20.39.67C20,.53,19.54.41,19.1.31A12.88,12.88,0,0,0,17.59.05c-.46,0-.92,0-1.38,0H16c-.8,0-1.6,0-2.4.1Zm-7,10.13.15-.3.2-.37a11,11,0,0,1,.74-1.13l.25-.31c.1-.12.22-.24.33-.36s.21-.2.32-.3l.3-.26c.15-.11.3-.22.46-.32a7.14,7.14,0,0,1,1.08-.61c.22-.08.45-.17.69-.24l.68-.22c.74-.09,1.47-.22,2.2-.34l.81-.06h1c.64,0,1.27,0,1.91.09a11,11,0,0,1,2.1.6,11.06,11.06,0,0,1,2,1.12c.24.19.46.39.68.59a7.68,7.68,0,0,1,.61.67,12.76,12.76,0,0,1,1.3,2.19,11.84,11.84,0,0,1,.49,1.53,13.13,13.13,0,0,1,.31,1.66c0,.31.06.62.07.93s0,.67,0,1a18.14,18.14,0,0,1-.13,1.81c-.05.32-.09.64-.16.95s-.14.65-.23,1-.18.67-.28,1-.22.62-.34.93A13.16,13.16,0,0,1,23.3,23c-.16.26-.32.53-.5.79l-.49.69c-.09.11-.17.22-.26.31a5.69,5.69,0,0,1-.66.64,10.26,10.26,0,0,1-.95.61,9.83,9.83,0,0,1-1,.5c-.33.13-.67.26-1,.37a7.52,7.52,0,0,1-1.14.26c-.31,0-.62.07-.93.08H15.33c-.35,0-.7,0-1.05,0s-.62-.06-.93-.11h0c-.43-.06-.86-.13-1.28-.23A8.22,8.22,0,0,1,11,26.49a8,8,0,0,1-.82-.43c-.27-.17-.53-.34-.79-.53a13.56,13.56,0,0,1-2.12-2,9.54,9.54,0,0,1-.6-.91c-.1-.19-.21-.38-.3-.57l-.23-.47c-.09-.23-.18-.47-.25-.7A8.84,8.84,0,0,1,5.64,20c-.08-.29-.14-.58-.2-.86s-.1-.53-.14-.8a13.35,13.35,0,0,1-.13-2c0-.35,0-.71,0-1.06s.07-.69.11-1a.34.34,0,0,1,0,.1,13.24,13.24,0,0,1,.37-1.77c.19-.61.4-1.21.62-1.81h0c.07-.17.14-.35.22-.51Zm7.33-4.75h0ZM2.61,8.87l0,.07,0-.07ZM1.4,12.92s0,.07,0,.11,0-.08,0-.11Zm0,.15v0l0,.21a.88.88,0,0,0,0-.17ZM25.1,17.6v0Zm1.64,5.12c0,.08-.07.16-.1.25h0v0l.11-.27Zm-5.38,2.72,0,0,0,0ZM15.12,41.51l0,0h0l0,0Z"/><path class="cls-1" d="M13.35,14.15c-.24,0-.48.12-.72.19l-.66.2a9.59,9.59,0,0,0-1.16.45,8.92,8.92,0,0,0-1,.55,7.09,7.09,0,0,0-2.21,2,.29.29,0,0,0-.1.12.54.54,0,0,0,0,.55,1.91,1.91,0,0,0,.37.38c.21.17.42.32.64.48A10.82,10.82,0,0,0,11,20.37a12.16,12.16,0,0,0,1.34.4,8.59,8.59,0,0,0,1.43.17,15.7,15.7,0,0,0,2.74-.09,12,12,0,0,0,1.46-.25,8.78,8.78,0,0,0,1.3-.47c.43-.18.85-.39,1.26-.61a7,7,0,0,0,1.17-.86A4,4,0,0,0,22,18.3a1.63,1.63,0,0,0,.23-.29l0-.31a2.72,2.72,0,0,1,0-.28c-.14-.18-.29-.36-.44-.53s-.27-.33-.41-.48l-.45-.49a5.47,5.47,0,0,0-.51-.45,5.76,5.76,0,0,0-1.18-.75l-.44-.19a.35.35,0,0,1-.18.06,3.27,3.27,0,0,1-.53-.05l-.42-.06h.08c-.31,0-.61-.09-.91-.11l-.51,0-.5-.07a3.9,3.9,0,0,0-.59,0h-.3l-.24,0-.19,0h-.16a.37.37,0,0,1-.15,0,.31.31,0,0,1-.37-.13.49.49,0,0,1,0-.11l-.41.09Zm-.24,5a.5.5,0,0,1-.17-.66c.07-.13.13-.27.19-.4a3.5,3.5,0,0,0,.24-.79,3.59,3.59,0,0,0,0-.79,3.86,3.86,0,0,0-.09-.49,2.49,2.49,0,0,0-.14-.41L13,15.3,12.71,15a.36.36,0,0,1-.11-.24.36.36,0,0,1,.11-.26.31.31,0,0,1,.24-.1.35.35,0,0,1,.26.1l.1.09c.1.1.21.2.3.31a3.17,3.17,0,0,1,.32.51,3.59,3.59,0,0,1,.33,1,3,3,0,0,1,0,1.31,4.37,4.37,0,0,1-.21.57l-.09.2-.07.16h0a.69.69,0,0,0,0,.13.52.52,0,0,1-.34.34h-.12a.54.54,0,0,1-.25-.06Zm4.11-.2-.2-.05a2.17,2.17,0,0,1-.35-.15l-.54-.24-.27-.1-.4-.16-.23-.1a.5.5,0,0,1-.29-.34.46.46,0,0,1,.09-.42.36.36,0,0,1,0-.27.41.41,0,0,1,.17-.23l.79-.59,0,0,0,0,.29-.24.21-.18a3.11,3.11,0,0,1,.28-.23l.05-.05a.93.93,0,0,1,.31-.19l.11,0a.49.49,0,0,1,.32.14.81.81,0,0,1,.16.45c0,.1,0,.21,0,.31v.14l0,.14c0,.17,0,.34,0,.51s0,.45,0,.68,0,.41,0,.61v.06a.91.91,0,0,1,0,.23.48.48,0,0,1-.38.35l-.13,0-.15,0Zm3.46-.35h0l0,0Zm-3.91,1.55h0Z"/><path class="cls-2" d="M22.2,17.42h0l-.06-.06.06.07Z"/><path class="cls-2" d="M22.41,13a.59.59,0,0,0-.29.18,1.85,1.85,0,0,0-.14.14c-.1.1-.19.21-.28.31l-.56.66L20,15.65a.53.53,0,0,0-.13.34.51.51,0,0,0,.13.33.48.48,0,0,0,.67,0L21.79,15l.38-.46a1.09,1.09,0,0,0,0,.18c0,.23,0,.45,0,.67s0,.46,0,.7c0,.42,0,.85,0,1.28s0,.89,0,1.34c0,.28,0,.57,0,.86,0,.12,0,.24,0,.36L22,19.78c-.23-.1-.46-.22-.68-.34l-.63-.35c-.23-.12-.46-.24-.68-.38a.49.49,0,0,0-.58.08.48.48,0,0,0-.14.34.42.42,0,0,0,.14.33,1.45,1.45,0,0,0,.4.26l.35.16.61.31.59.28.69.28a2.32,2.32,0,0,0,.37.13.56.56,0,0,0,.42,0,.52.52,0,0,0,.11-.1.41.41,0,0,0,.13-.27,2.61,2.61,0,0,1-.17-.28,4.44,4.44,0,0,1-.56-1.48,9,9,0,0,1-.12-1,8,8,0,0,1,0-1.2c0-.41.09-.83.15-1.24s.17-.75.28-1.13a6.86,6.86,0,0,1,.27-.76v0a.47.47,0,0,0-.12-.28.42.42,0,0,0-.17-.1h-.21Z"/><path class="cls-2" d="M21.54,14.26c-.18.32-.36.64-.53,1-.08.13-.15.26-.22.4a3.07,3.07,0,0,0-.35.73.45.45,0,0,0,.21.52l.07,0s0,.07,0,.1a2.7,2.7,0,0,0,0,.28.5.5,0,0,0,.55.53,3.25,3.25,0,0,0,0,.44v0h0a1.15,1.15,0,0,0-.37-.18.58.58,0,0,0-.32,0,.61.61,0,0,0-.36.27.68.68,0,0,0-.08.31.58.58,0,0,0,.07.28c0,.13,0,.27-.06.4v0l0,.27a.6.6,0,0,0,.08.29.59.59,0,0,0,.81.21.53.53,0,0,0,.12-.1l.06.08.08.09.05.06a.65.65,0,0,0,.17.16.58.58,0,0,0,.57,0,.64.64,0,0,0,.2-.2l0-.09a.51.51,0,0,0,.3-.35,1.37,1.37,0,0,0,0-.16,5,5,0,0,1-.27-.91,9,9,0,0,1-.12-1,8,8,0,0,1,0-1.2c0-.41.09-.83.15-1.24a5.41,5.41,0,0,1,.12-.55l0,0a.53.53,0,0,0-.06-.33.49.49,0,0,0-.12-.13.35.35,0,0,0-.14-.13.4.4,0,0,0-.22-.06.44.44,0,0,0-.38.22Z"/><path class="cls-3" d="M10.49,16.21a1.18,1.18,0,0,0-.32.27A.83.83,0,0,0,10,17a1,1,0,0,0,.11.44,1.05,1.05,0,0,0,.31.32.88.88,0,0,0,.2.09l.22,0h.14a.89.89,0,0,0,.28-.07,1.9,1.9,0,0,0,.33-.22.66.66,0,0,0,.19-.44.9.9,0,0,0-.12-.53l0-.07a1,1,0,0,0-.14-.2l0,0a.49.49,0,0,0-.15-.1,1,1,0,0,0-.29-.09h-.08a.87.87,0,0,0-.39.1Z"/><path class="cls-2" d="M12.71,14.53a.36.36,0,0,0-.11.26.32.32,0,0,0,.11.24l.25.27a2.69,2.69,0,0,1,.16.29,2.49,2.49,0,0,1,.14.41c0,.16.07.32.09.49a3.59,3.59,0,0,1,0,.79,3.29,3.29,0,0,1-.24.78c-.06.14-.12.28-.19.41a.49.49,0,0,0,.17.66.54.54,0,0,0,.25.06.25.25,0,0,0,.12,0,.49.49,0,0,0,.34-.33.5.5,0,0,1,0-.13h0l.07-.16.09-.2a4.37,4.37,0,0,0,.21-.57,3,3,0,0,0,0-1.31,3.59,3.59,0,0,0-.33-1,3.17,3.17,0,0,0-.32-.51c-.09-.11-.2-.21-.3-.31l-.1-.09a.35.35,0,0,0-.26-.1.31.31,0,0,0-.24.1Z"/><path class="cls-4" d="M9.35,13.89l-.16,0a.34.34,0,0,0-.12.06L9,14l-.11.12a.7.7,0,0,0-.11.23.74.74,0,0,0,0,.21A.52.52,0,0,0,9,15a.51.51,0,0,0,.15.07.26.26,0,0,0,.15,0h.15A.3.3,0,0,0,9.65,15a.24.24,0,0,0,.12-.07.51.51,0,0,0,.12-.2.5.5,0,0,0,0-.24.67.67,0,0,0-.09-.26l-.09-.11A.57.57,0,0,0,9.63,14a.38.38,0,0,0-.26-.13Z"/><path class="cls-4" d="M11.19,11.73a1.13,1.13,0,0,0-.61.53,1,1,0,0,0-.15.36.75.75,0,0,0,0,.21.81.81,0,0,0,.1.31.49.49,0,0,0,.1.15l.1.13a.49.49,0,0,0,.13.12,1.09,1.09,0,0,0,.45.24.89.89,0,0,0,.43,0,.49.49,0,0,0,.19-.07.59.59,0,0,0,.19-.13.76.76,0,0,0,.13-.17.35.35,0,0,0,.06-.14.89.89,0,0,0,.11-.66,1,1,0,0,0-.27-.51A1.19,1.19,0,0,0,12,12a1.14,1.14,0,0,0-.16-.15l-.2-.09a1.3,1.3,0,0,0-.22,0h0a.93.93,0,0,0-.24,0Z"/><path class="cls-4" d="M13.73,9.91a1.31,1.31,0,0,0-.33.25,1.42,1.42,0,0,0-.25.34.54.54,0,0,0-.05.11,1.21,1.21,0,0,0-.19.55,1.25,1.25,0,0,0,0,.38,1.06,1.06,0,0,0,.24.41,1.37,1.37,0,0,0,.29.25,1.58,1.58,0,0,0,.36.14,1.66,1.66,0,0,0,.91-.06,1.41,1.41,0,0,0,.34-.19.84.84,0,0,0,.18-.15,1.24,1.24,0,0,0,.14-.18,1.12,1.12,0,0,0,.16-.37,1.54,1.54,0,0,0,0-.48,1.43,1.43,0,0,0-.29-.76,1.17,1.17,0,0,0-.77-.42h-.12a1.5,1.5,0,0,0-.68.18Zm.42,1Z"/><path class="cls-2" d="M16.38,12.45a2.36,2.36,0,0,0-.28.12l-.27.14-.59.31c-.45.24-.88.49-1.33.72a.32.32,0,0,0-.11.43.31.31,0,0,0,.37.13.33.33,0,0,0,.15,0h.16l.19,0,.24,0h.3a3.9,3.9,0,0,1,.59,0l.5.07.51,0c.3,0,.6.07.91.11h-.08l.42.06a3.27,3.27,0,0,0,.53.05.36.36,0,0,0,.21-.08.24.24,0,0,0,.08-.19.39.39,0,0,0-.06-.18c0-.09-.09-.18-.13-.28a1.82,1.82,0,0,1-.11-.4.36.36,0,0,0,0-.09.33.33,0,0,0-.11-.15.34.34,0,0,0-.26,0l-.3.07h0l-.08-.18a.61.61,0,0,0-.07-.14,1.1,1.1,0,0,0-.09-.14l-.12-.09a.54.54,0,0,0-.22,0,1.79,1.79,0,0,0-.39.13l-.18.09a.69.69,0,0,0,0-.13.34.34,0,0,0,0-.1.35.35,0,0,0-.08-.13.23.23,0,0,0-.18-.08Zm1.53.8h0Zm-.05,0h0Zm-2.5.38Zm2.78.08h0Zm.09.28v0h0v0Zm.34.08Zm-4.12.21Z"/><path class="cls-2" d="M17.18,15.33a.93.93,0,0,0-.31.19l-.05,0-.28.24-.21.18-.29.24,0,0,0,0-.79.59a.35.35,0,0,0-.17.23.36.36,0,0,0,0,.27.46.46,0,0,0-.09.42.5.5,0,0,0,.29.34l.23.1.4.16.27.1.53.24a2.75,2.75,0,0,0,.36.15l.2.05.15,0,.13,0a.48.48,0,0,0,.38-.35,1,1,0,0,0,0-.24v-.05c0-.2,0-.41,0-.61s0-.46,0-.68,0-.34,0-.51l0-.14v-.14c0-.1,0-.21,0-.31a.81.81,0,0,0-.16-.45.49.49,0,0,0-.32-.14l-.11,0Zm.36.66,0,0,0,0Z"/><path class="cls-2" d="M16,14l-.71,0-.69.05-.52,0a5.78,5.78,0,0,0-.7.14.19.19,0,1,0,.1.37c.21-.05.41-.09.62-.12a4.38,4.38,0,0,1,.52,0h.69l.74,0,.72,0,.51.09.57.12.49.12a3.59,3.59,0,0,1,.35.12l.15.08.09.06.13.06h0l0,0,0,0,0,0a.23.23,0,0,0,.3,0,.3.3,0,0,0,.07-.11.25.25,0,0,0,0-.19,1.3,1.3,0,0,0-.15-.18l-.16-.11-.29-.14-.34-.12-.41-.1c-.32-.08-.64-.14-1-.19l-.29,0h-.25L16,14Zm-1.85.51h0Zm2.57,0h0Zm2.34.65Z"/><path class="cls-2" d="M14.59,13.93A4.07,4.07,0,0,0,14,14l-.34.07-.31.09a.28.28,0,0,0-.18.32.27.27,0,0,0,.32.18l.4-.11a2,2,0,0,1,.34-.06,5.85,5.85,0,0,1,.59,0h.66c.41,0,.82,0,1.22.09l.82.13a4.08,4.08,0,0,1,.85.22h0l.3.13.29.1.39.18a3.79,3.79,0,0,1,.34.2l.32.22.09.06.13.06.06,0a.22.22,0,0,0,.19,0,.26.26,0,0,0,.11-.14.25.25,0,0,0,0-.15h0v0h0l0-.07a.4.4,0,0,0-.13-.13l-.07-.05L20,15.05l-.29-.18-.4-.16L19,14.58l-.34-.13.06,0a4,4,0,0,0-.57-.22,5.72,5.72,0,0,0-.57-.11c-.19,0-.38-.06-.58-.09L16.36,14l-.56,0H14.59Zm4.65.76.05,0-.05,0Zm1.3.81Zm-.38.3h0Z"/></svg>